<?xml version="1.0" standalone="no"?>
<!DOCTYPE svg PUBLIC "-//W3C//DTD SVG 20010904//EN"
 "http://www.w3.org/TR/2001/REC-SVG-20010904/DTD/svg10.dtd">
<svg version="1.0" xmlns="http://www.w3.org/2000/svg"
 width="452.000000pt" height="88.000000pt" viewBox="0 0 452.000000 88.000000"
 preserveAspectRatio="xMidYMid meet">

<g transform="translate(0.000000,88.000000) scale(0.100000,-0.100000)"
fill="#000000" stroke="none">
<path d="M382 863 c-51 -43 -109 -219 -134 -407 l-13 -91 -6 150 c-7 172 -24
247 -70 300 -32 36 -79 52 -124 41 -38 -10 -30 -26 10 -19 30 5 39 1 69 -29
19 -19 40 -52 46 -73 8 -25 15 -139 19 -305 6 -275 13 -315 49 -308 14 3 18
21 23 108 15 246 100 557 161 594 26 16 47 -11 65 -80 10 -42 16 -140 20 -334
4 -263 13 -350 33 -350 24 0 32 36 79 380 23 165 45 248 67 257 35 13 39 -14
45 -280 7 -272 14 -321 52 -354 20 -17 20 -17 13 7 -21 71 -25 123 -26 320 0
296 -17 376 -74 368 -53 -8 -94 -157 -123 -448 l-18 -175 -6 270 c-6 254 -17
363 -41 410 -32 62 -77 81 -116 48z"/>
<path d="M2122 863 c-51 -43 -109 -219 -134 -407 l-13 -91 -6 150 c-7 172 -24
247 -70 300 -32 36 -79 52 -124 41 -38 -10 -30 -26 10 -19 30 5 39 1 69 -29
19 -19 40 -52 46 -73 8 -25 15 -139 19 -305 6 -275 13 -315 49 -308 14 3 18
21 23 108 15 246 100 557 161 594 26 16 47 -11 65 -80 10 -42 16 -140 20 -334
4 -263 13 -350 33 -350 24 0 32 36 79 380 23 165 45 248 67 257 35 13 39 -14
45 -280 7 -272 14 -321 52 -354 20 -17 20 -17 13 7 -21 71 -25 123 -26 320 0
296 -17 376 -74 368 -53 -8 -94 -157 -123 -448 l-18 -175 -6 270 c-6 254 -17
363 -41 410 -32 62 -77 81 -116 48z"/>
<path d="M2933 738 c-5 -7 -15 -31 -21 -53 l-12 -41 -107 19 c-130 22 -243 19
-273 -8 -11 -10 -17 -21 -14 -26 2 -5 14 1 24 11 27 27 75 26 229 -6 69 -14
127 -27 129 -29 1 -1 -8 -57 -22 -123 -25 -126 -67 -224 -97 -230 -23 -4 -39
46 -39 119 0 48 -4 60 -22 73 -33 23 -53 20 -82 -14 -49 -59 -71 -184 -40
-228 27 -39 66 -21 88 41 l13 39 13 -31 c23 -56 70 -50 110 14 12 19 22 35 23
35 1 0 2 -51 2 -113 1 -127 16 -172 62 -183 55 -14 119 43 179 159 29 56 31
59 38 34 23 -92 101 -67 166 53 l30 55 0 -88 c0 -71 3 -89 16 -94 21 -8 34 14
34 60 0 45 33 142 56 168 16 18 18 18 47 -7 21 -18 39 -25 58 -22 l28 4 7 -78
c8 -89 23 -120 48 -99 9 8 16 29 16 50 0 37 45 185 80 264 l19 42 0 -127 c1
-140 12 -191 36 -167 8 8 30 44 50 79 l35 65 0 -53 c0 -58 13 -92 35 -92 8 0
30 16 50 37 l35 36 0 -30 c0 -43 30 -78 58 -69 23 8 52 53 52 83 1 13 6 9 17
-12 29 -55 53 -58 94 -14 l29 31 -3 -84 c-2 -76 0 -83 17 -83 16 0 24 18 46
100 33 122 60 189 71 178 5 -5 15 -54 23 -109 19 -142 40 -174 71 -114 19 36
75 187 75 201 0 25 -20 -7 -51 -81 -19 -48 -36 -75 -40 -68 -3 7 -9 46 -13 86
-7 84 -28 142 -50 142 -21 0 -44 -37 -71 -117 l-22 -68 1 105 c1 101 0 105
-21 108 -20 3 -21 0 -17 -50 5 -45 1 -62 -23 -108 -29 -57 -55 -74 -68 -43 -4
10 -11 52 -14 93 -5 68 -8 76 -33 90 -33 18 -53 9 -83 -39 -116 -187 -130
-197 -120 -83 8 91 2 122 -24 122 -28 0 -47 -28 -76 -113 -15 -43 -30 -76 -32
-73 -3 2 1 47 7 100 20 156 3 248 -42 231 -23 -9 -56 -92 -88 -218 l-27 -109
-7 84 c-10 125 -25 185 -53 218 -30 36 -73 41 -73 10 0 -13 7 -20 19 -20 23 0
37 -36 50 -130 7 -52 6 -68 -5 -80 -13 -13 -19 -10 -50 23 -19 20 -41 37 -48
37 -21 0 -48 -36 -67 -92 l-18 -53 0 62 c-1 71 -14 113 -35 113 -23 0 -30 -19
-16 -44 10 -20 7 -32 -18 -83 -36 -70 -78 -123 -98 -123 -17 0 -34 40 -34 80
0 24 5 29 34 34 43 8 96 66 96 105 0 34 -37 71 -71 71 -52 0 -91 -60 -108
-168 -12 -77 -53 -162 -101 -213 -42 -44 -68 -49 -96 -18 -17 19 -19 36 -17
168 2 164 30 348 51 343 7 -1 53 -5 102 -9 88 -6 150 6 150 29 0 6 -8 7 -17 3
-36 -16 -80 -16 -152 -1 -41 9 -76 18 -79 21 -3 3 0 26 6 52 13 47 4 76 -15
51z m285 -320 c19 -19 14 -47 -13 -73 -36 -36 -56 -33 -49 8 7 35 30 77 42 77
5 0 13 -5 20 -12z m-548 -100 c-11 -74 -25 -103 -42 -92 -15 10 -4 83 22 139
28 62 35 46 20 -47z m1390 0 c-11 -74 -25 -103 -42 -92 -15 10 -4 83 22 139
28 62 35 46 20 -47z"/>
<path d="M1140 495 c-18 -22 -8 -50 19 -50 32 0 49 28 32 49 -17 20 -35 20
-51 1z"/>
<path d="M886 430 c-49 -59 -71 -184 -40 -228 27 -39 66 -21 88 41 l13 39 13
-31 c23 -57 70 -50 112 16 l23 38 7 -68 c9 -73 30 -127 52 -127 18 0 41 28 60
74 16 39 17 40 32 18 27 -39 66 -21 88 41 l13 39 13 -31 c14 -35 40 -47 68
-32 21 11 76 93 87 129 12 42 -10 22 -40 -36 -31 -59 -57 -76 -70 -45 -4 10
-11 52 -14 93 -5 68 -8 76 -33 90 -51 28 -87 -16 -137 -168 -38 -116 -55 -139
-72 -96 -9 26 -8 156 2 209 3 14 -1 20 -14 20 -13 0 -25 -17 -41 -58 -30 -72
-53 -107 -70 -107 -20 0 -36 54 -36 121 0 48 -4 60 -22 73 -33 23 -53 20 -82
-14z m44 -112 c-11 -74 -25 -103 -42 -92 -15 10 -4 83 22 139 28 62 35 46 20
-47z m400 0 c-11 -74 -25 -103 -42 -92 -15 10 -4 83 22 139 28 62 35 46 20
-47z"/>
</g>
</svg>
