<?xml version="1.0" standalone="no"?>
<!DOCTYPE svg PUBLIC "-//W3C//DTD SVG 20010904//EN"
 "http://www.w3.org/TR/2001/REC-SVG-20010904/DTD/svg10.dtd">
<svg version="1.0" xmlns="http://www.w3.org/2000/svg"
 width="549.000000pt" height="93.000000pt" viewBox="0 0 549.000000 93.000000"
 preserveAspectRatio="xMidYMid meet">

<g transform="translate(0.000000,93.000000) scale(0.100000,-0.100000)"
fill="#000000" stroke="none">
<path d="M3423 915 c-12 -8 -36 -38 -54 -65 -18 -28 -39 -50 -47 -50 -7 0 -60
9 -115 21 -189 38 -353 27 -413 -28 -37 -34 -23 -39 33 -12 87 42 247 36 426
-16 l57 -16 -44 -82 c-73 -135 -134 -292 -151 -391 -10 -62 -132 -181 -136
-133 -3 27 5 58 47 201 24 83 44 158 44 168 0 29 -28 33 -55 8 -21 -20 -28
-22 -50 -12 -39 18 -116 14 -155 -7 -42 -22 -100 -125 -100 -177 0 -112 92
-139 184 -55 25 23 28 23 22 6 -17 -58 -25 -127 -16 -149 13 -35 49 -56 83
-49 16 3 52 27 80 53 l51 47 27 -28 c20 -21 36 -29 62 -29 51 0 76 12 124 58
41 40 42 40 101 35 49 -5 69 -2 104 16 57 27 122 90 194 187 53 71 58 76 71
59 18 -26 17 -35 -17 -142 -28 -88 -38 -171 -24 -208 8 -20 56 -45 87 -45 33
0 106 52 141 100 17 22 37 40 45 40 31 0 70 47 119 142 51 100 135 223 158
232 18 7 13 -3 -74 -172 -40 -79 -72 -153 -70 -164 4 -30 29 -42 71 -34 31 6
43 17 91 91 53 78 106 135 127 135 11 0 -4 -39 -45 -114 -51 -91 -89 -205 -82
-245 6 -41 41 -81 70 -81 37 0 92 47 157 135 61 82 64 85 96 79 46 -9 77 1
119 38 29 26 35 28 31 13 -18 -55 -26 -127 -17 -149 13 -34 49 -56 82 -49 34
7 109 71 139 119 13 22 27 33 35 30 32 -12 62 20 137 144 112 184 140 202 67
43 -79 -170 -89 -264 -35 -310 33 -29 88 -30 132 -4 40 25 143 149 143 173 0
31 -17 20 -63 -39 -56 -73 -96 -110 -122 -115 -37 -6 -30 50 25 196 28 74 56
160 63 191 11 55 11 58 -12 76 -13 10 -37 19 -54 19 -40 0 -94 -57 -165 -176
-53 -88 -62 -83 -16 8 39 77 25 115 -32 89 -33 -15 -103 -160 -113 -235 -7
-50 -14 -63 -57 -107 -48 -48 -73 -61 -75 -36 -3 27 5 58 47 201 24 83 44 158
44 168 0 29 -28 33 -55 8 -21 -20 -28 -22 -50 -12 -39 18 -116 14 -155 -7 -51
-27 -103 -129 -98 -191 4 -40 0 -52 -38 -105 -80 -115 -157 -182 -139 -122 4
12 29 78 55 147 80 208 87 253 45 272 -22 10 -33 8 -69 -10 -24 -11 -60 -35
-80 -52 -40 -36 -45 -27 -17 28 10 20 26 61 35 91 14 49 14 57 1 78 -44 66
-154 -23 -266 -215 -47 -81 -49 -76 -8 18 34 76 33 100 -5 100 -31 0 -62 -39
-110 -140 -43 -90 -53 -136 -36 -163 11 -19 7 -26 -38 -69 -29 -28 -60 -48
-73 -48 -20 0 -21 3 -16 44 4 24 25 92 47 150 22 58 40 110 40 115 0 5 -16 29
-36 52 l-36 44 6 72 c6 61 4 74 -9 79 -49 19 -95 -39 -95 -119 0 -37 -9 -54
-68 -132 -78 -103 -148 -158 -196 -153 -30 3 -31 5 -31 48 0 43 1 45 46 66 51
25 96 72 106 111 12 51 -62 80 -134 52 -86 -32 -155 -168 -133 -264 9 -38 7
-40 -39 -87 -54 -54 -76 -59 -93 -22 -23 51 18 182 134 426 53 111 64 127 82
123 157 -34 414 -36 565 -5 121 24 250 72 276 100 18 19 17 20 -3 20 -12 0
-55 -13 -96 -30 -151 -60 -227 -74 -391 -74 -134 0 -326 22 -344 40 -3 3 3 17
12 32 10 15 25 42 35 60 16 32 16 35 -3 48 -24 17 -26 17 -52 -1z m117 -427
c0 -13 -49 -68 -62 -68 -11 0 2 32 25 58 23 24 37 28 37 10z m-595 -29 c11
-16 -104 -179 -126 -179 -14 0 -11 67 6 108 9 20 26 47 37 59 22 24 72 31 83
12z m1880 0 c11 -16 -104 -179 -126 -179 -14 0 -11 67 6 108 9 20 26 47 37 59
22 24 72 31 83 12z"/>
<path d="M407 848 c-9 -7 -26 -38 -37 -68 -35 -88 -120 -248 -182 -341 -54
-80 -101 -132 -157 -171 -31 -22 -20 -41 17 -27 62 23 148 128 245 299 26 47
46 74 43 60 -29 -145 -40 -260 -28 -309 4 -19 20 -43 34 -54 44 -33 67 -14
139 112 34 61 64 109 66 107 2 -1 -3 -45 -11 -97 -17 -111 -8 -176 29 -225 52
-68 155 -68 211 -1 22 27 24 33 11 35 -9 2 -29 -5 -44 -16 -51 -36 -70 -36
-87 -3 -33 63 -18 190 54 454 52 194 56 219 35 237 -12 10 -23 11 -42 4 -20
-7 -40 -39 -98 -164 -74 -159 -175 -353 -180 -348 -2 2 3 46 11 98 62 406 61
399 18 419 -30 13 -27 14 -47 -1z"/>
<path d="M2417 848 c-9 -7 -26 -38 -37 -68 -35 -88 -120 -248 -182 -341 -54
-80 -101 -132 -157 -171 -31 -22 -20 -41 17 -27 62 23 148 128 245 299 26 47
46 74 43 60 -29 -145 -40 -260 -28 -309 4 -19 20 -43 34 -54 44 -33 67 -14
139 112 34 61 64 109 66 107 2 -1 -3 -45 -11 -97 -17 -111 -8 -176 29 -225 52
-68 155 -68 211 -1 22 27 24 33 11 35 -9 2 -29 -5 -44 -16 -51 -36 -70 -36
-87 -3 -33 63 -18 190 54 454 52 194 56 219 35 237 -12 10 -23 11 -42 4 -20
-7 -40 -39 -98 -164 -74 -159 -175 -353 -180 -348 -2 2 3 46 11 98 62 406 61
399 18 419 -30 13 -27 14 -47 -1z"/>
<path d="M1246 641 c-22 -25 -13 -58 19 -73 44 -20 104 42 75 77 -18 21 -74
19 -94 -4z"/>
<path d="M1003 518 c-19 -19 -26 -20 -48 -10 -39 18 -116 15 -155 -7 -42 -22
-100 -125 -100 -177 0 -112 92 -139 184 -55 25 23 28 23 22 6 -17 -58 -25
-127 -16 -149 13 -35 49 -56 84 -49 30 6 117 85 148 133 13 20 19 23 29 12 18
-17 94 -15 129 3 15 8 42 31 58 51 l29 35 7 -26 c20 -80 102 -87 180 -16 25
23 28 23 22 6 -17 -58 -25 -127 -16 -149 13 -34 49 -56 82 -49 74 14 241 233
178 233 -5 0 -19 -17 -31 -38 -31 -50 -119 -142 -135 -142 -27 0 -22 31 32
214 24 83 44 158 44 168 0 29 -28 33 -55 8 -21 -20 -28 -22 -50 -12 -38 18
-116 15 -154 -6 -23 -12 -50 -46 -88 -107 -59 -98 -107 -152 -138 -157 -35 -5
-29 36 19 142 25 54 46 111 46 125 0 22 -4 25 -35 25 -26 0 -43 -8 -68 -33
-32 -33 -77 -130 -77 -168 0 -37 -29 -90 -81 -144 -52 -55 -73 -66 -82 -43 -5
15 3 47 58 234 21 73 35 139 32 148 -9 22 -28 20 -54 -6z m-68 -59 c11 -16
-104 -179 -126 -179 -14 0 -11 67 6 108 9 20 26 47 37 59 22 24 72 31 83 12z
m670 0 c11 -16 -104 -179 -126 -179 -14 0 -11 67 6 108 9 20 26 47 37 59 22
24 72 31 83 12z"/>
</g>
</svg>
